<mxfile host="app.diagrams.net" modified="2022-06-15T06:30:39.384Z" agent="5.0 (Windows NT 10.0; Win64; x64) AppleWebKit/537.36 (KHTML, like Gecko) Chrome/102.0.0.0 Safari/537.36" etag="vokW3xZSs3-hrxzSwRtv" version="20.0.1" type="github">
  <diagram id="2nafvPesXBV369Mlgwu8" name="Page-1">
    <mxGraphModel dx="2031" dy="2743" grid="1" gridSize="10" guides="1" tooltips="1" connect="1" arrows="1" fold="1" page="1" pageScale="1" pageWidth="1169" pageHeight="1654" math="0" shadow="0">
      <root>
        <mxCell id="0" />
        <mxCell id="1" parent="0" />
        <mxCell id="rJLXyOpNKVKNRPo0n4hy-1" value="&amp;lt;&amp;lt;Multitenant Service&amp;gt;&amp;gt;" style="shape=umlFrame;whiteSpace=wrap;html=1;width=190;height=45;fillColor=#f5f5f5;strokeColor=#666666;fontColor=#333333;" parent="1" vertex="1">
          <mxGeometry x="640" y="-760" width="1010" height="1620" as="geometry" />
        </mxCell>
        <UserObject label="" id="rJLXyOpNKVKNRPo0n4hy-2">
          <mxCell style="html=1;dropTarget=0;" parent="1" vertex="1">
            <mxGeometry x="690" y="-670" width="930" height="1500" as="geometry" />
          </mxCell>
        </UserObject>
        <mxCell id="rJLXyOpNKVKNRPo0n4hy-3" value="" style="shape=component;jettyWidth=8;jettyHeight=4;" parent="rJLXyOpNKVKNRPo0n4hy-2" vertex="1">
          <mxGeometry x="1" width="20" height="20" relative="1" as="geometry">
            <mxPoint x="-27" y="7" as="offset" />
          </mxGeometry>
        </mxCell>
        <mxCell id="rJLXyOpNKVKNRPo0n4hy-4" value="adZU Tenant&lt;br&gt;" style="shape=umlFrame;whiteSpace=wrap;html=1;width=150;height=60;fillColor=#e1d5e7;strokeColor=#9673a6;" parent="1" vertex="1">
          <mxGeometry x="270" y="-260" width="250" height="110" as="geometry" />
        </mxCell>
        <mxCell id="rJLXyOpNKVKNRPo0n4hy-5" value="&amp;lt;&amp;lt;Serverless Multitenant Service&amp;gt;&amp;gt;&lt;br&gt;ConnectorHub" style="shape=umlFrame;whiteSpace=wrap;html=1;width=200;height=30;fillColor=#d5e8d4;strokeColor=#82b366;" parent="1" vertex="1">
          <mxGeometry x="260" y="-660" width="210" height="197.5" as="geometry" />
        </mxCell>
        <mxCell id="rJLXyOpNKVKNRPo0n4hy-6" value="&amp;lt;&amp;lt;media&amp;gt;&amp;gt;&lt;br&gt;LinkedIn" style="shape=umlFrame;whiteSpace=wrap;html=1;width=130;height=30;fillColor=#f5f5f5;strokeColor=#666666;fontColor=#333333;" parent="1" vertex="1">
          <mxGeometry x="1787" y="-50" width="160" height="260" as="geometry" />
        </mxCell>
        <mxCell id="rJLXyOpNKVKNRPo0n4hy-7" value="S3 bucket" style="pointerEvents=1;shadow=0;dashed=0;html=1;strokeColor=none;fillColor=#DF8C42;labelPosition=center;verticalLabelPosition=bottom;verticalAlign=top;align=center;outlineConnect=0;shape=mxgraph.veeam2.aws_s3;" parent="1" vertex="1">
          <mxGeometry x="440" y="-227" width="34" height="34" as="geometry" />
        </mxCell>
        <mxCell id="rJLXyOpNKVKNRPo0n4hy-8" value="1.3.Execute Action&lt;br&gt;&amp;lt;&amp;lt;TrafficPackage&amp;gt;&amp;gt;" style="edgeStyle=none;rounded=0;orthogonalLoop=1;jettySize=auto;html=1;fillColor=#e1d5e7;strokeColor=#9673a6;strokeWidth=2;exitX=1;exitY=0.25;exitDx=0;exitDy=0;" parent="1" source="rJLXyOpNKVKNRPo0n4hy-46" target="rJLXyOpNKVKNRPo0n4hy-10" edge="1">
          <mxGeometry relative="1" as="geometry">
            <mxPoint x="970.96" y="-443.94499999999994" as="targetPoint" />
            <mxPoint x="650" y="-442.57500000000005" as="sourcePoint" />
          </mxGeometry>
        </mxCell>
        <mxCell id="rJLXyOpNKVKNRPo0n4hy-9" value="&lt;font color=&quot;#ff0000&quot;&gt;TrafficPackage Function&lt;/font&gt;" style="outlineConnect=0;dashed=0;verticalLabelPosition=bottom;verticalAlign=top;align=center;html=1;shape=mxgraph.aws3.lambda_function;fillColor=#F58534;gradientColor=none;" parent="1" vertex="1">
          <mxGeometry x="840" y="-592" width="49" height="50" as="geometry" />
        </mxCell>
        <mxCell id="rJLXyOpNKVKNRPo0n4hy-10" value="&lt;font color=&quot;#ff0000&quot;&gt;API Gateway&lt;/font&gt;" style="outlineConnect=0;dashed=0;verticalLabelPosition=bottom;verticalAlign=top;align=center;html=1;shape=mxgraph.aws3.api_gateway;fillColor=#D9A741;gradientColor=none;" parent="1" vertex="1">
          <mxGeometry x="710" y="-592" width="50" height="52" as="geometry" />
        </mxCell>
        <mxCell id="rJLXyOpNKVKNRPo0n4hy-11" value="" style="endArrow=classic;html=1;fillColor=#e1d5e7;strokeColor=#9673a6;strokeWidth=2;" parent="1" source="rJLXyOpNKVKNRPo0n4hy-10" edge="1">
          <mxGeometry width="50" height="50" relative="1" as="geometry">
            <mxPoint x="960" y="-650" as="sourcePoint" />
            <mxPoint x="840" y="-566" as="targetPoint" />
          </mxGeometry>
        </mxCell>
        <mxCell id="rJLXyOpNKVKNRPo0n4hy-12" value="&lt;font color=&quot;#ff0000&quot;&gt;PackageDownload queue&lt;/font&gt;" style="outlineConnect=0;dashed=0;verticalLabelPosition=bottom;verticalAlign=top;align=center;html=1;shape=mxgraph.aws3.sqs;fillColor=#D9A741;gradientColor=none;" parent="1" vertex="1">
          <mxGeometry x="844.5" y="-430" width="40" height="50" as="geometry" />
        </mxCell>
        <mxCell id="rJLXyOpNKVKNRPo0n4hy-13" value="1.13. Exchange Connection Reference for media endpoint access token" style="edgeStyle=none;rounded=0;orthogonalLoop=1;jettySize=auto;html=1;entryX=1;entryY=0.25;entryDx=0;entryDy=0;fillColor=#e1d5e7;strokeColor=#9673a6;strokeWidth=2;exitX=0;exitY=0.5;exitDx=0;exitDy=0;exitPerimeter=0;" parent="1" source="rJLXyOpNKVKNRPo0n4hy-65" target="rJLXyOpNKVKNRPo0n4hy-48" edge="1">
          <mxGeometry x="0.5564" y="-33" relative="1" as="geometry">
            <mxPoint x="927.8346456692914" y="-480" as="sourcePoint" />
            <mxPoint as="offset" />
          </mxGeometry>
        </mxCell>
        <mxCell id="rJLXyOpNKVKNRPo0n4hy-14" value="&amp;nbsp;1.19 Get Access Token &lt;br&gt;for ConnectorHub" style="edgeStyle=none;rounded=0;orthogonalLoop=1;jettySize=auto;html=1;fillColor=#e1d5e7;strokeColor=#9673a6;strokeWidth=2;exitX=1;exitY=0.5;exitDx=0;exitDy=0;exitPerimeter=0;entryX=0.5;entryY=1;entryDx=0;entryDy=0;" parent="1" source="rJLXyOpNKVKNRPo0n4hy-39" edge="1" target="rJLXyOpNKVKNRPo0n4hy-50">
          <mxGeometry x="0.2552" y="70" relative="1" as="geometry">
            <mxPoint as="offset" />
            <mxPoint x="1110" y="-566" as="sourcePoint" />
            <mxPoint x="1540" y="-879" as="targetPoint" />
            <Array as="points">
              <mxPoint x="1570" y="-565" />
              <mxPoint x="1569" y="-720" />
            </Array>
          </mxGeometry>
        </mxCell>
        <mxCell id="rJLXyOpNKVKNRPo0n4hy-15" value="1.7 Download the S3 package" style="edgeStyle=none;rounded=0;orthogonalLoop=1;jettySize=auto;html=1;fillColor=#e1d5e7;strokeColor=#9673a6;strokeWidth=2;exitX=0;exitY=0.5;exitDx=0;exitDy=0;exitPerimeter=0;" parent="1" source="rJLXyOpNKVKNRPo0n4hy-19" target="rJLXyOpNKVKNRPo0n4hy-7" edge="1">
          <mxGeometry relative="1" as="geometry">
            <mxPoint x="1165" y="-530" as="sourcePoint" />
            <mxPoint x="610" y="-188" as="targetPoint" />
          </mxGeometry>
        </mxCell>
        <mxCell id="rJLXyOpNKVKNRPo0n4hy-16" value="&lt;span style=&quot;font-size: 12px&quot;&gt;1.4 Add Request to Queue&lt;/span&gt;" style="edgeStyle=none;rounded=0;orthogonalLoop=1;jettySize=auto;html=1;fillColor=#e1d5e7;strokeColor=#9673a6;strokeWidth=2;exitX=0.5;exitY=1;exitDx=0;exitDy=0;exitPerimeter=0;" parent="1" source="rJLXyOpNKVKNRPo0n4hy-9" target="rJLXyOpNKVKNRPo0n4hy-12" edge="1">
          <mxGeometry relative="1" as="geometry">
            <mxPoint x="1165" y="-530" as="sourcePoint" />
            <mxPoint x="624" y="-164.4856630824372" as="targetPoint" />
          </mxGeometry>
        </mxCell>
        <mxCell id="rJLXyOpNKVKNRPo0n4hy-17" value="&amp;nbsp;1.10 Add to queue&lt;br&gt;-TrafficPackage S3 Reference&amp;nbsp;&lt;br&gt;-ConnectionReference" style="edgeStyle=orthogonalEdgeStyle;rounded=0;orthogonalLoop=1;jettySize=auto;html=1;strokeWidth=2;fillColor=#e1d5e7;strokeColor=#9673a6;" parent="1" source="rJLXyOpNKVKNRPo0n4hy-19" target="rJLXyOpNKVKNRPo0n4hy-20" edge="1">
          <mxGeometry relative="1" as="geometry" />
        </mxCell>
        <mxCell id="rJLXyOpNKVKNRPo0n4hy-18" value="1.8 Save &lt;br&gt;-Extracted Files&amp;nbsp;" style="edgeStyle=orthogonalEdgeStyle;rounded=0;orthogonalLoop=1;jettySize=auto;html=1;fillColor=#e1d5e7;strokeColor=#9673a6;strokeWidth=2;exitX=1;exitY=0.5;exitDx=0;exitDy=0;exitPerimeter=0;" parent="1" source="rJLXyOpNKVKNRPo0n4hy-19" target="rJLXyOpNKVKNRPo0n4hy-53" edge="1">
          <mxGeometry x="0.148" relative="1" as="geometry">
            <mxPoint x="1180.5" y="-215" as="sourcePoint" />
            <mxPoint x="1361" y="-215" as="targetPoint" />
            <mxPoint as="offset" />
          </mxGeometry>
        </mxCell>
        <mxCell id="rJLXyOpNKVKNRPo0n4hy-19" value="&lt;font color=&quot;#ff0000&quot;&gt;PackageDownload Function&lt;/font&gt;" style="outlineConnect=0;dashed=0;verticalLabelPosition=bottom;verticalAlign=top;align=center;html=1;shape=mxgraph.aws3.lambda_function;fillColor=#F58534;gradientColor=none;" parent="1" vertex="1">
          <mxGeometry x="840" y="-235" width="49" height="50" as="geometry" />
        </mxCell>
        <mxCell id="rJLXyOpNKVKNRPo0n4hy-20" value="&lt;font color=&quot;#ff0000&quot;&gt;PackageProcess queue&lt;/font&gt;" style="outlineConnect=0;dashed=0;verticalLabelPosition=bottom;verticalAlign=top;align=center;html=1;shape=mxgraph.aws3.sqs;fillColor=#D9A741;gradientColor=none;" parent="1" vertex="1">
          <mxGeometry x="844.5" y="-90" width="40" height="50" as="geometry" />
        </mxCell>
        <mxCell id="rJLXyOpNKVKNRPo0n4hy-21" value="" style="edgeStyle=none;rounded=0;orthogonalLoop=1;jettySize=auto;html=1;fillColor=#e1d5e7;strokeColor=#9673a6;strokeWidth=2;entryX=0.5;entryY=1;entryDx=0;entryDy=0;entryPerimeter=0;exitX=0.5;exitY=0;exitDx=0;exitDy=0;exitPerimeter=0;" parent="1" source="rJLXyOpNKVKNRPo0n4hy-19" target="rJLXyOpNKVKNRPo0n4hy-12" edge="1">
          <mxGeometry relative="1" as="geometry">
            <mxPoint x="1155" y="-230" as="sourcePoint" />
            <mxPoint x="1155" y="-240" as="targetPoint" />
          </mxGeometry>
        </mxCell>
        <mxCell id="rJLXyOpNKVKNRPo0n4hy-22" value="1.6 Process Request" style="edgeLabel;html=1;align=center;verticalAlign=middle;resizable=0;points=[];" parent="rJLXyOpNKVKNRPo0n4hy-21" vertex="1" connectable="0">
          <mxGeometry x="-0.28" relative="1" as="geometry">
            <mxPoint as="offset" />
          </mxGeometry>
        </mxCell>
        <mxCell id="rJLXyOpNKVKNRPo0n4hy-23" style="edgeStyle=orthogonalEdgeStyle;rounded=0;orthogonalLoop=1;jettySize=auto;html=1;entryX=0.5;entryY=1;entryDx=0;entryDy=0;entryPerimeter=0;strokeWidth=2;fillColor=#e1d5e7;strokeColor=#9673a6;exitX=0.5;exitY=0;exitDx=0;exitDy=0;exitPerimeter=0;" parent="1" source="rJLXyOpNKVKNRPo0n4hy-65" target="rJLXyOpNKVKNRPo0n4hy-20" edge="1">
          <mxGeometry relative="1" as="geometry" />
        </mxCell>
        <mxCell id="rJLXyOpNKVKNRPo0n4hy-24" value="1.11 Process queue" style="edgeLabel;html=1;align=center;verticalAlign=middle;resizable=0;points=[];" parent="rJLXyOpNKVKNRPo0n4hy-23" vertex="1" connectable="0">
          <mxGeometry x="-0.1351" y="1" relative="1" as="geometry">
            <mxPoint as="offset" />
          </mxGeometry>
        </mxCell>
        <mxCell id="rJLXyOpNKVKNRPo0n4hy-27" value="Save Campaign, Asset Status" style="edgeStyle=orthogonalEdgeStyle;rounded=0;orthogonalLoop=1;jettySize=auto;html=1;strokeWidth=2;fillColor=#e1d5e7;strokeColor=#9673a6;" parent="1" source="rJLXyOpNKVKNRPo0n4hy-28" target="rJLXyOpNKVKNRPo0n4hy-52" edge="1">
          <mxGeometry x="0.1539" relative="1" as="geometry">
            <Array as="points">
              <mxPoint x="1280" y="50" />
              <mxPoint x="1280" y="-370" />
            </Array>
            <mxPoint x="1400" y="-340" as="targetPoint" />
            <mxPoint as="offset" />
          </mxGeometry>
        </mxCell>
        <mxCell id="rJLXyOpNKVKNRPo0n4hy-28" value="&lt;font color=&quot;#ff0000&quot;&gt;Ad creator Function&lt;/font&gt;" style="outlineConnect=0;dashed=0;verticalLabelPosition=bottom;verticalAlign=top;align=center;html=1;shape=mxgraph.aws3.lambda_function;fillColor=#F58534;gradientColor=none;" parent="1" vertex="1">
          <mxGeometry x="1375.5" y="25" width="49" height="50" as="geometry" />
        </mxCell>
        <UserObject label="LinkedIn API" link="https://ads.google.com/intl/en_IN/home/" id="rJLXyOpNKVKNRPo0n4hy-29">
          <mxCell style="rounded=0;whiteSpace=wrap;html=1;fontColor=#0000EE;fontStyle=4;" parent="1" vertex="1">
            <mxGeometry x="1810" y="20" width="120" height="60" as="geometry" />
          </mxCell>
        </UserObject>
        <mxCell id="rJLXyOpNKVKNRPo0n4hy-30" value="&lt;font color=&quot;#ff0000&quot;&gt;PackageNotification queue&lt;/font&gt;" style="outlineConnect=0;dashed=0;verticalLabelPosition=bottom;verticalAlign=top;align=center;html=1;shape=mxgraph.aws3.sqs;fillColor=#D9A741;gradientColor=none;" parent="1" vertex="1">
          <mxGeometry x="1500" y="-200" width="40" height="50" as="geometry" />
        </mxCell>
        <mxCell id="rJLXyOpNKVKNRPo0n4hy-31" style="edgeStyle=orthogonalEdgeStyle;rounded=0;orthogonalLoop=1;jettySize=auto;html=1;strokeWidth=2;fillColor=#e1d5e7;strokeColor=#9673a6;exitX=0.5;exitY=0;exitDx=0;exitDy=0;exitPerimeter=0;entryX=0;entryY=0.5;entryDx=0;entryDy=0;entryPerimeter=0;" parent="1" source="rJLXyOpNKVKNRPo0n4hy-28" target="rJLXyOpNKVKNRPo0n4hy-30" edge="1">
          <mxGeometry relative="1" as="geometry">
            <mxPoint x="1385" y="-50" as="sourcePoint" />
            <mxPoint x="1185" y="-65" as="targetPoint" />
            <Array as="points">
              <mxPoint x="1400" y="-175" />
            </Array>
          </mxGeometry>
        </mxCell>
        <mxCell id="rJLXyOpNKVKNRPo0n4hy-32" value="1.16 Create Notification" style="edgeLabel;html=1;align=center;verticalAlign=middle;resizable=0;points=[];" parent="rJLXyOpNKVKNRPo0n4hy-31" vertex="1" connectable="0">
          <mxGeometry x="0.3332" y="1" relative="1" as="geometry">
            <mxPoint y="96" as="offset" />
          </mxGeometry>
        </mxCell>
        <mxCell id="rJLXyOpNKVKNRPo0n4hy-33" value="" style="endArrow=classic;html=1;fillColor=#e1d5e7;strokeColor=#9673a6;strokeWidth=2;exitX=0.855;exitY=0.145;exitDx=0;exitDy=0;exitPerimeter=0;" parent="1" source="rJLXyOpNKVKNRPo0n4hy-19" target="rJLXyOpNKVKNRPo0n4hy-52" edge="1">
          <mxGeometry width="50" height="50" relative="1" as="geometry">
            <mxPoint x="930" y="-250" as="sourcePoint" />
            <mxPoint x="1350" y="-352" as="targetPoint" />
          </mxGeometry>
        </mxCell>
        <mxCell id="rJLXyOpNKVKNRPo0n4hy-34" value="1.9 Update Download status" style="edgeLabel;html=1;align=center;verticalAlign=middle;resizable=0;points=[];" parent="rJLXyOpNKVKNRPo0n4hy-33" vertex="1" connectable="0">
          <mxGeometry x="-0.1663" y="4" relative="1" as="geometry">
            <mxPoint x="38" y="-18" as="offset" />
          </mxGeometry>
        </mxCell>
        <mxCell id="rJLXyOpNKVKNRPo0n4hy-35" value="&lt;font color=&quot;#ff0000&quot;&gt;CloudWatch&lt;/font&gt;" style="outlineConnect=0;dashed=0;verticalLabelPosition=bottom;verticalAlign=top;align=center;html=1;shape=mxgraph.aws3.cloudwatch;fillColor=#759C3E;gradientColor=none;" parent="1" vertex="1">
          <mxGeometry x="700" y="750" width="60" height="50" as="geometry" />
        </mxCell>
        <mxCell id="rJLXyOpNKVKNRPo0n4hy-36" style="edgeStyle=orthogonalEdgeStyle;rounded=0;orthogonalLoop=1;jettySize=auto;html=1;strokeWidth=2;fillColor=#e1d5e7;strokeColor=#9673a6;" parent="1" source="rJLXyOpNKVKNRPo0n4hy-39" target="rJLXyOpNKVKNRPo0n4hy-30" edge="1">
          <mxGeometry relative="1" as="geometry" />
        </mxCell>
        <mxCell id="rJLXyOpNKVKNRPo0n4hy-37" value="1.17 Process Notification" style="edgeLabel;html=1;align=center;verticalAlign=middle;resizable=0;points=[];" parent="rJLXyOpNKVKNRPo0n4hy-36" vertex="1" connectable="0">
          <mxGeometry x="0.1259" y="3" relative="1" as="geometry">
            <mxPoint x="-3" y="-24" as="offset" />
          </mxGeometry>
        </mxCell>
        <mxCell id="rJLXyOpNKVKNRPo0n4hy-38" value="1.20 Notify Traffic package Status" style="edgeStyle=orthogonalEdgeStyle;rounded=0;orthogonalLoop=1;jettySize=auto;html=1;strokeWidth=2;fillColor=#e1d5e7;strokeColor=#9673a6;exitX=0.5;exitY=0;exitDx=0;exitDy=0;exitPerimeter=0;" parent="1" edge="1" target="rJLXyOpNKVKNRPo0n4hy-5" source="rJLXyOpNKVKNRPo0n4hy-39">
          <mxGeometry x="0.407" y="-15" relative="1" as="geometry">
            <mxPoint x="468" y="-614.9999999999995" as="targetPoint" />
            <Array as="points">
              <mxPoint x="1520" y="-630" />
            </Array>
            <mxPoint x="1513.499999999999" y="-614.9999999999995" as="sourcePoint" />
            <mxPoint as="offset" />
          </mxGeometry>
        </mxCell>
        <mxCell id="rJLXyOpNKVKNRPo0n4hy-39" value="&lt;font color=&quot;#ff0000&quot;&gt;PackageNotification Function&lt;/font&gt;" style="outlineConnect=0;dashed=0;verticalLabelPosition=bottom;verticalAlign=top;align=center;html=1;shape=mxgraph.aws3.lambda_function;fillColor=#F58534;gradientColor=none;" parent="1" vertex="1">
          <mxGeometry x="1495.5" y="-590" width="49" height="50" as="geometry" />
        </mxCell>
        <mxCell id="rJLXyOpNKVKNRPo0n4hy-40" value="" style="endArrow=classic;html=1;strokeWidth=2;exitX=0.145;exitY=0.855;exitDx=0;exitDy=0;exitPerimeter=0;fillColor=#e1d5e7;strokeColor=#9673a6;" parent="1" source="rJLXyOpNKVKNRPo0n4hy-39" target="rJLXyOpNKVKNRPo0n4hy-52" edge="1">
          <mxGeometry width="50" height="50" relative="1" as="geometry">
            <mxPoint x="1380" y="-420" as="sourcePoint" />
            <mxPoint x="1390.888589881593" y="-390" as="targetPoint" />
          </mxGeometry>
        </mxCell>
        <mxCell id="rJLXyOpNKVKNRPo0n4hy-41" value="1.18 Get Package Status" style="edgeLabel;html=1;align=center;verticalAlign=middle;resizable=0;points=[];" parent="rJLXyOpNKVKNRPo0n4hy-40" vertex="1" connectable="0">
          <mxGeometry x="-0.1151" relative="1" as="geometry">
            <mxPoint as="offset" />
          </mxGeometry>
        </mxCell>
        <mxCell id="rJLXyOpNKVKNRPo0n4hy-42" value="" style="endArrow=classic;html=1;fillColor=#e1d5e7;strokeColor=#9673a6;strokeWidth=2;" parent="1" source="rJLXyOpNKVKNRPo0n4hy-9" target="rJLXyOpNKVKNRPo0n4hy-52" edge="1">
          <mxGeometry width="50" height="50" relative="1" as="geometry">
            <mxPoint x="1186.195" y="-530" as="sourcePoint" />
            <mxPoint x="1350" y="-387.72727272727275" as="targetPoint" />
          </mxGeometry>
        </mxCell>
        <mxCell id="rJLXyOpNKVKNRPo0n4hy-43" value="1.5 Add Package Status" style="edgeLabel;html=1;align=center;verticalAlign=middle;resizable=0;points=[];" parent="rJLXyOpNKVKNRPo0n4hy-42" vertex="1" connectable="0">
          <mxGeometry x="-0.1252" y="1" relative="1" as="geometry">
            <mxPoint as="offset" />
          </mxGeometry>
        </mxCell>
        <mxCell id="rJLXyOpNKVKNRPo0n4hy-44" value="" style="endArrow=classic;html=1;fillColor=#e1d5e7;strokeColor=#9673a6;strokeWidth=2;rounded=0;entryX=0.664;entryY=1;entryDx=0;entryDy=0;entryPerimeter=0;" parent="1" source="rJLXyOpNKVKNRPo0n4hy-65" target="rJLXyOpNKVKNRPo0n4hy-50" edge="1">
          <mxGeometry width="50" height="50" relative="1" as="geometry">
            <mxPoint x="840" y="170" as="sourcePoint" />
            <mxPoint x="1310" y="-945" as="targetPoint" />
            <Array as="points">
              <mxPoint x="770" y="130" />
              <mxPoint x="770" y="800" />
              <mxPoint x="1200" y="800" />
              <mxPoint x="1580" y="800" />
              <mxPoint x="1589" y="-340" />
            </Array>
          </mxGeometry>
        </mxCell>
        <mxCell id="rJLXyOpNKVKNRPo0n4hy-45" value="1.12 Get Access Token&lt;br&gt;for ConnectionManager" style="edgeLabel;html=1;align=center;verticalAlign=middle;resizable=0;points=[];" parent="rJLXyOpNKVKNRPo0n4hy-44" vertex="1" connectable="0">
          <mxGeometry x="0.676" y="-2" relative="1" as="geometry">
            <mxPoint x="59" y="-256" as="offset" />
          </mxGeometry>
        </mxCell>
        <mxCell id="rJLXyOpNKVKNRPo0n4hy-46" value="&lt;span style=&quot;color: rgb(0 , 0 , 238)&quot;&gt;«Service»&lt;/span&gt;&lt;br style=&quot;color: rgb(0 , 0 , 238)&quot;&gt;&lt;b style=&quot;color: rgb(0 , 0 , 238)&quot;&gt;CHB&lt;/b&gt;" style="html=1;dropTarget=0;" parent="1" vertex="1">
          <mxGeometry x="320" y="-590" width="110" height="90" as="geometry" />
        </mxCell>
        <mxCell id="rJLXyOpNKVKNRPo0n4hy-47" value="" style="shape=module;jettyWidth=8;jettyHeight=4;" parent="rJLXyOpNKVKNRPo0n4hy-46" vertex="1">
          <mxGeometry x="1" width="20" height="20" relative="1" as="geometry">
            <mxPoint x="-27" y="7" as="offset" />
          </mxGeometry>
        </mxCell>
        <mxCell id="rJLXyOpNKVKNRPo0n4hy-48" value="&lt;span style=&quot;color: rgb(0 , 0 , 238)&quot;&gt;«Service»&lt;/span&gt;&lt;br style=&quot;color: rgb(0 , 0 , 238)&quot;&gt;&lt;span style=&quot;color: rgb(0 , 0 , 238)&quot;&gt;ConnectionManager&lt;/span&gt;" style="html=1;dropTarget=0;" parent="1" vertex="1">
          <mxGeometry x="280" y="75" width="110" height="90" as="geometry" />
        </mxCell>
        <mxCell id="rJLXyOpNKVKNRPo0n4hy-49" value="" style="shape=module;jettyWidth=8;jettyHeight=4;" parent="rJLXyOpNKVKNRPo0n4hy-48" vertex="1">
          <mxGeometry x="1" width="20" height="20" relative="1" as="geometry">
            <mxPoint x="-27" y="7" as="offset" />
          </mxGeometry>
        </mxCell>
        <mxCell id="rJLXyOpNKVKNRPo0n4hy-50" value="&lt;span style=&quot;color: rgb(0 , 0 , 238)&quot;&gt;&amp;lt;&amp;lt;Identity Provider&amp;gt;&amp;gt;&lt;/span&gt;&lt;br style=&quot;color: rgb(0 , 0 , 238)&quot;&gt;&lt;span style=&quot;color: rgb(0 , 0 , 238)&quot;&gt;PlatfomManager&lt;/span&gt;" style="html=1;dropTarget=0;" parent="1" vertex="1">
          <mxGeometry x="1491.5" y="-970" width="154.5" height="90" as="geometry" />
        </mxCell>
        <mxCell id="rJLXyOpNKVKNRPo0n4hy-51" value="" style="shape=module;jettyWidth=8;jettyHeight=4;" parent="rJLXyOpNKVKNRPo0n4hy-50" vertex="1">
          <mxGeometry x="1" width="20" height="20" relative="1" as="geometry">
            <mxPoint x="-27" y="7" as="offset" />
          </mxGeometry>
        </mxCell>
        <mxCell id="rJLXyOpNKVKNRPo0n4hy-52" value="PackageStatus S3 Folder" style="image;html=1;image=/img/lib/clip_art/general/Full_Folder_128x128.png" parent="1" vertex="1">
          <mxGeometry x="1125" y="-420" width="70" height="55" as="geometry" />
        </mxCell>
        <mxCell id="rJLXyOpNKVKNRPo0n4hy-53" value="PackageDetails S3 Folder" style="image;html=1;image=/img/lib/clip_art/general/Full_Folder_128x128.png" parent="1" vertex="1">
          <mxGeometry x="1050" y="40" width="70" height="55" as="geometry" />
        </mxCell>
        <mxCell id="rJLXyOpNKVKNRPo0n4hy-54" value="Folder" style="shape=umlFrame;whiteSpace=wrap;html=1;" parent="1" vertex="1">
          <mxGeometry x="1840" y="-770" width="330" height="470" as="geometry" />
        </mxCell>
        <mxCell id="rJLXyOpNKVKNRPo0n4hy-55" style="edgeStyle=orthogonalEdgeStyle;rounded=0;orthogonalLoop=1;jettySize=auto;html=1;exitX=0.5;exitY=1;exitDx=0;exitDy=0;dashed=1;endArrow=none;endFill=0;entryX=0;entryY=0.5;entryDx=0;entryDy=0;" parent="1" source="rJLXyOpNKVKNRPo0n4hy-56" target="rJLXyOpNKVKNRPo0n4hy-57" edge="1">
          <mxGeometry relative="1" as="geometry" />
        </mxCell>
        <mxCell id="rJLXyOpNKVKNRPo0n4hy-56" value="s3...../traffic-id/" style="image;html=1;image=/img/lib/clip_art/general/Empty_Folder_128x128.png" parent="1" vertex="1">
          <mxGeometry x="1850" y="-629" width="80" height="80" as="geometry" />
        </mxCell>
        <mxCell id="rJLXyOpNKVKNRPo0n4hy-57" value="traffic-package" style="image;html=1;image=/img/lib/clip_art/general/Full_Folder_128x128.png" parent="1" vertex="1">
          <mxGeometry x="1930" y="-520" width="80" height="80" as="geometry" />
        </mxCell>
        <mxCell id="rJLXyOpNKVKNRPo0n4hy-58" value="Folder contains extracted traffic package as -is" style="shape=note;whiteSpace=wrap;html=1;size=14;verticalAlign=top;align=left;spacingTop=-6;fillColor=#fff2cc;strokeColor=#d6b656;" parent="1" vertex="1">
          <mxGeometry x="2030" y="-560" width="130" height="60" as="geometry" />
        </mxCell>
        <mxCell id="rJLXyOpNKVKNRPo0n4hy-59" style="rounded=0;orthogonalLoop=1;jettySize=auto;html=1;exitX=1;exitY=0.5;exitDx=0;exitDy=0;exitPerimeter=0;endArrow=none;endFill=0;startArrow=diamondThin;startFill=1;" parent="1" source="rJLXyOpNKVKNRPo0n4hy-60" target="rJLXyOpNKVKNRPo0n4hy-62" edge="1">
          <mxGeometry relative="1" as="geometry" />
        </mxCell>
        <mxCell id="rJLXyOpNKVKNRPo0n4hy-60" value="&amp;lt;&amp;lt;JSON&amp;gt;&amp;gt;&lt;br&gt;trafficking.json" style="verticalLabelPosition=bottom;html=1;verticalAlign=top;align=center;strokeColor=none;fillColor=#00BEF2;shape=mxgraph.azure.file_2;pointerEvents=1;" parent="1" vertex="1">
          <mxGeometry x="1947" y="-390" width="47.5" height="50" as="geometry" />
        </mxCell>
        <mxCell id="rJLXyOpNKVKNRPo0n4hy-61" style="edgeStyle=orthogonalEdgeStyle;rounded=0;orthogonalLoop=1;jettySize=auto;html=1;exitX=0.5;exitY=1;exitDx=0;exitDy=0;dashed=1;endArrow=none;endFill=0;entryX=0;entryY=0.5;entryDx=0;entryDy=0;entryPerimeter=0;" parent="1" source="rJLXyOpNKVKNRPo0n4hy-56" target="rJLXyOpNKVKNRPo0n4hy-60" edge="1">
          <mxGeometry relative="1" as="geometry" />
        </mxCell>
        <mxCell id="rJLXyOpNKVKNRPo0n4hy-62" value="batch-id" style="aspect=fixed;html=1;points=[];align=center;image;fontSize=12;image=img/lib/mscae/Tag.svg;" parent="1" vertex="1">
          <mxGeometry x="2040" y="-410" width="50" height="50" as="geometry" />
        </mxCell>
        <mxCell id="rJLXyOpNKVKNRPo0n4hy-63" value="&lt;div&gt;IMPORTANT:&lt;/div&gt;&lt;div&gt;- retention policy for the whole S3 - 1w TTL for any object&lt;/div&gt;" style="shape=note;whiteSpace=wrap;html=1;size=14;verticalAlign=top;align=left;spacingTop=-6;fillColor=#fff2cc;strokeColor=#d6b656;" parent="1" vertex="1">
          <mxGeometry x="1900" y="-735" width="220" height="55" as="geometry" />
        </mxCell>
        <mxCell id="rJLXyOpNKVKNRPo0n4hy-64" value="" style="endArrow=none;dashed=1;html=1;dashPattern=1 3;strokeWidth=2;entryX=-0.015;entryY=0.651;entryDx=0;entryDy=0;entryPerimeter=0;" parent="1" source="rJLXyOpNKVKNRPo0n4hy-52" target="rJLXyOpNKVKNRPo0n4hy-54" edge="1">
          <mxGeometry width="50" height="50" relative="1" as="geometry">
            <mxPoint x="1680" y="-460" as="sourcePoint" />
            <mxPoint x="1730" y="-510" as="targetPoint" />
          </mxGeometry>
        </mxCell>
        <mxCell id="rJLXyOpNKVKNRPo0n4hy-65" value="&lt;font color=&quot;#ff0000&quot;&gt;PackageProcess&amp;nbsp;Function&lt;/font&gt;" style="outlineConnect=0;dashed=0;verticalLabelPosition=bottom;verticalAlign=top;align=center;html=1;shape=mxgraph.aws3.lambda_function;fillColor=#F58534;gradientColor=none;" parent="1" vertex="1">
          <mxGeometry x="840" y="70" width="49" height="50" as="geometry" />
        </mxCell>
        <mxCell id="rJLXyOpNKVKNRPo0n4hy-66" value="" style="endArrow=classic;html=1;fillColor=#e1d5e7;strokeColor=#9673a6;strokeWidth=2;entryX=-0.07;entryY=0.877;entryDx=0;entryDy=0;entryPerimeter=0;" parent="1" target="rJLXyOpNKVKNRPo0n4hy-53" edge="1">
          <mxGeometry width="50" height="50" relative="1" as="geometry">
            <mxPoint x="890" y="90" as="sourcePoint" />
            <mxPoint x="1132.1100000000001" y="-56.99592474065548" as="targetPoint" />
          </mxGeometry>
        </mxCell>
        <mxCell id="iOcRhtn1Pvj0uM8DEcyP-3" value="" style="endArrow=classic;html=1;fillColor=#e1d5e7;strokeColor=#9673a6;strokeWidth=2;exitX=1;exitY=0.5;exitDx=0;exitDy=0;exitPerimeter=0;entryX=0;entryY=0.5;entryDx=0;entryDy=0;entryPerimeter=0;" parent="1" source="rJLXyOpNKVKNRPo0n4hy-9" edge="1" target="rJLXyOpNKVKNRPo0n4hy-39">
          <mxGeometry width="50" height="50" relative="1" as="geometry">
            <mxPoint x="900.005" y="-560" as="sourcePoint" />
            <mxPoint x="1520" y="-600" as="targetPoint" />
          </mxGeometry>
        </mxCell>
        <mxCell id="iOcRhtn1Pvj0uM8DEcyP-7" value="If invalid package URL, send back to CHB" style="edgeLabel;html=1;align=center;verticalAlign=middle;resizable=0;points=[];rotation=0;" parent="iOcRhtn1Pvj0uM8DEcyP-3" vertex="1" connectable="0">
          <mxGeometry x="-0.2099" y="-1" relative="1" as="geometry">
            <mxPoint x="-9" y="-13" as="offset" />
          </mxGeometry>
        </mxCell>
        <mxCell id="iOcRhtn1Pvj0uM8DEcyP-8" value="&lt;font color=&quot;#ff0000&quot;&gt;CreateCampaign Function&lt;/font&gt;" style="outlineConnect=0;dashed=0;verticalLabelPosition=bottom;verticalAlign=top;align=center;html=1;shape=mxgraph.aws3.lambda_function;fillColor=#F58534;gradientColor=none;" parent="1" vertex="1">
          <mxGeometry x="840" y="470" width="49" height="50" as="geometry" />
        </mxCell>
        <mxCell id="iOcRhtn1Pvj0uM8DEcyP-9" value="&lt;font color=&quot;#ff0000&quot;&gt;CreateCampaign&amp;nbsp;queue&lt;/font&gt;" style="outlineConnect=0;dashed=0;verticalLabelPosition=bottom;verticalAlign=top;align=center;html=1;shape=mxgraph.aws3.sqs;fillColor=#D9A741;gradientColor=none;" parent="1" vertex="1">
          <mxGeometry x="844.5" y="300" width="40" height="50" as="geometry" />
        </mxCell>
        <mxCell id="iOcRhtn1Pvj0uM8DEcyP-10" value="&lt;span style=&quot;font-size: 12px&quot;&gt;Enqueue package info&lt;br&gt;LinkedIn access token &amp;amp;&lt;br&gt;Campaign Group&lt;br&gt;&lt;/span&gt;" style="edgeStyle=none;rounded=0;orthogonalLoop=1;jettySize=auto;html=1;fillColor=#e1d5e7;strokeColor=#9673a6;strokeWidth=2;exitX=0.5;exitY=1;exitDx=0;exitDy=0;exitPerimeter=0;entryX=0.5;entryY=0;entryDx=0;entryDy=0;entryPerimeter=0;" parent="1" target="iOcRhtn1Pvj0uM8DEcyP-9" edge="1">
          <mxGeometry x="0.0536" y="70" relative="1" as="geometry">
            <mxPoint x="864.02" y="120" as="sourcePoint" />
            <mxPoint x="864" y="200" as="targetPoint" />
            <mxPoint as="offset" />
          </mxGeometry>
        </mxCell>
        <mxCell id="0mPdFPJ8UgySxpzReuJT-1" value="&lt;font color=&quot;#ff0000&quot;&gt;Register Image Function&lt;/font&gt;" style="outlineConnect=0;dashed=0;verticalLabelPosition=bottom;verticalAlign=top;align=center;html=1;shape=mxgraph.aws3.lambda_function;fillColor=#F58534;gradientColor=none;" parent="1" vertex="1">
          <mxGeometry x="1030" y="650" width="49" height="50" as="geometry" />
        </mxCell>
        <mxCell id="0mPdFPJ8UgySxpzReuJT-2" value="" style="endArrow=classic;html=1;fillColor=#e1d5e7;strokeColor=#9673a6;strokeWidth=2;entryX=0.833;entryY=0.983;entryDx=0;entryDy=0;entryPerimeter=0;exitX=0;exitY=0.5;exitDx=0;exitDy=0;exitPerimeter=0;" parent="1" source="iOcRhtn1Pvj0uM8DEcyP-8" target="rJLXyOpNKVKNRPo0n4hy-29" edge="1">
          <mxGeometry width="50" height="50" relative="1" as="geometry">
            <mxPoint x="1270" y="575" as="sourcePoint" />
            <mxPoint x="1880" y="575" as="targetPoint" />
            <Array as="points">
              <mxPoint x="780" y="495" />
              <mxPoint x="780" y="770" />
              <mxPoint x="1910" y="770" />
            </Array>
          </mxGeometry>
        </mxCell>
        <mxCell id="P_MQMm48tsE6kodi8rJG-22" value="LN API to create campaign" style="edgeLabel;html=1;align=center;verticalAlign=middle;resizable=0;points=[];" vertex="1" connectable="0" parent="0mPdFPJ8UgySxpzReuJT-2">
          <mxGeometry x="-0.5867" y="-1" relative="1" as="geometry">
            <mxPoint x="-2" y="-11" as="offset" />
          </mxGeometry>
        </mxCell>
        <mxCell id="0mPdFPJ8UgySxpzReuJT-3" value="&lt;font color=&quot;#ff0000&quot;&gt;Register Image queue&lt;/font&gt;" style="outlineConnect=0;dashed=0;verticalLabelPosition=bottom;verticalAlign=top;align=center;html=1;shape=mxgraph.aws3.sqs;fillColor=#D9A741;gradientColor=none;" parent="1" vertex="1">
          <mxGeometry x="844.5" y="650" width="40" height="50" as="geometry" />
        </mxCell>
        <mxCell id="0mPdFPJ8UgySxpzReuJT-4" value="&lt;span style=&quot;font-size: 12px&quot;&gt;Enqueue message &lt;br&gt;for image register with campaign ID&lt;br&gt;&lt;/span&gt;" style="edgeStyle=none;rounded=0;orthogonalLoop=1;jettySize=auto;html=1;fillColor=#e1d5e7;strokeColor=#9673a6;strokeWidth=2;" parent="1" source="iOcRhtn1Pvj0uM8DEcyP-8" target="0mPdFPJ8UgySxpzReuJT-3" edge="1">
          <mxGeometry x="0.1304" y="25" relative="1" as="geometry">
            <mxPoint x="1040" y="340" as="sourcePoint" />
            <mxPoint x="1040.48" y="520" as="targetPoint" />
            <mxPoint as="offset" />
          </mxGeometry>
        </mxCell>
        <mxCell id="0mPdFPJ8UgySxpzReuJT-5" value="&lt;span style=&quot;font-size: 12px&quot;&gt;&lt;br&gt;&lt;/span&gt;" style="edgeStyle=none;rounded=0;orthogonalLoop=1;jettySize=auto;html=1;fillColor=#e1d5e7;strokeColor=#9673a6;strokeWidth=2;entryX=0;entryY=0.5;entryDx=0;entryDy=0;entryPerimeter=0;" parent="1" source="0mPdFPJ8UgySxpzReuJT-3" target="0mPdFPJ8UgySxpzReuJT-1" edge="1">
          <mxGeometry x="-0.0997" y="15" relative="1" as="geometry">
            <mxPoint x="1310" y="420" as="sourcePoint" />
            <mxPoint x="1310" y="340" as="targetPoint" />
            <mxPoint as="offset" />
          </mxGeometry>
        </mxCell>
        <mxCell id="P_MQMm48tsE6kodi8rJG-27" value="Register image to &lt;br&gt;the organization" style="edgeLabel;html=1;align=center;verticalAlign=middle;resizable=0;points=[];" vertex="1" connectable="0" parent="0mPdFPJ8UgySxpzReuJT-5">
          <mxGeometry x="-0.1732" relative="1" as="geometry">
            <mxPoint x="26" y="-17" as="offset" />
          </mxGeometry>
        </mxCell>
        <mxCell id="0mPdFPJ8UgySxpzReuJT-6" value="" style="endArrow=classic;html=1;fillColor=#e1d5e7;strokeColor=#9673a6;strokeWidth=2;entryX=0.667;entryY=0.917;entryDx=0;entryDy=0;exitX=0.5;exitY=1;exitDx=0;exitDy=0;exitPerimeter=0;entryPerimeter=0;" parent="1" source="0mPdFPJ8UgySxpzReuJT-1" target="rJLXyOpNKVKNRPo0n4hy-29" edge="1">
          <mxGeometry width="50" height="50" relative="1" as="geometry">
            <mxPoint x="1219" y="331.02" as="sourcePoint" />
            <mxPoint x="1897.04" y="-120" as="targetPoint" />
            <Array as="points">
              <mxPoint x="1055" y="750" />
              <mxPoint x="1890" y="750" />
            </Array>
          </mxGeometry>
        </mxCell>
        <mxCell id="P_MQMm48tsE6kodi8rJG-23" value="LN API to register image" style="edgeLabel;html=1;align=center;verticalAlign=middle;resizable=0;points=[];" vertex="1" connectable="0" parent="0mPdFPJ8UgySxpzReuJT-6">
          <mxGeometry x="-0.6943" y="-1" relative="1" as="geometry">
            <mxPoint x="-4" y="-11" as="offset" />
          </mxGeometry>
        </mxCell>
        <mxCell id="0mPdFPJ8UgySxpzReuJT-7" value="&lt;font color=&quot;#ff0000&quot;&gt;Upload Image queue&lt;/font&gt;" style="outlineConnect=0;dashed=0;verticalLabelPosition=bottom;verticalAlign=top;align=center;html=1;shape=mxgraph.aws3.sqs;fillColor=#D9A741;gradientColor=none;" parent="1" vertex="1">
          <mxGeometry x="1250" y="650" width="40" height="50" as="geometry" />
        </mxCell>
        <mxCell id="0mPdFPJ8UgySxpzReuJT-8" value="&lt;span style=&quot;font-size: 12px&quot;&gt;Enqueue message&amp;nbsp;with &lt;br&gt;image upload URL &amp;amp; Asset&lt;br&gt;&lt;/span&gt;" style="edgeStyle=none;rounded=0;orthogonalLoop=1;jettySize=auto;html=1;fillColor=#e1d5e7;strokeColor=#9673a6;strokeWidth=2;exitX=1;exitY=0.5;exitDx=0;exitDy=0;exitPerimeter=0;entryX=0;entryY=0.5;entryDx=0;entryDy=0;entryPerimeter=0;" parent="1" source="0mPdFPJ8UgySxpzReuJT-1" target="0mPdFPJ8UgySxpzReuJT-7" edge="1">
          <mxGeometry x="0.0643" y="25" relative="1" as="geometry">
            <mxPoint x="1184" y="290" as="sourcePoint" />
            <mxPoint x="1184" y="210" as="targetPoint" />
            <mxPoint as="offset" />
          </mxGeometry>
        </mxCell>
        <mxCell id="P_MQMm48tsE6kodi8rJG-1" value="1.11 Create campaign queue&lt;span style=&quot;font-size: 12px&quot;&gt;&lt;br&gt;&lt;/span&gt;" style="edgeStyle=none;rounded=0;orthogonalLoop=1;jettySize=auto;html=1;fillColor=#e1d5e7;strokeColor=#9673a6;strokeWidth=2;exitX=0.5;exitY=1;exitDx=0;exitDy=0;exitPerimeter=0;entryX=0.5;entryY=0;entryDx=0;entryDy=0;entryPerimeter=0;" edge="1" parent="1" source="iOcRhtn1Pvj0uM8DEcyP-9" target="iOcRhtn1Pvj0uM8DEcyP-8">
          <mxGeometry x="-0.2593" relative="1" as="geometry">
            <mxPoint x="879" y="560" as="sourcePoint" />
            <mxPoint x="870" y="550" as="targetPoint" />
            <mxPoint as="offset" />
          </mxGeometry>
        </mxCell>
        <mxCell id="P_MQMm48tsE6kodi8rJG-2" value="" style="endArrow=none;dashed=1;html=1;dashPattern=1 3;strokeWidth=2;rounded=1;entryX=0.25;entryY=1;entryDx=0;entryDy=0;startArrow=classicThin;startFill=0;strokeColor=#1A1A1A;exitX=0.855;exitY=0.145;exitDx=0;exitDy=0;exitPerimeter=0;" edge="1" parent="1" source="iOcRhtn1Pvj0uM8DEcyP-8" target="rJLXyOpNKVKNRPo0n4hy-53">
          <mxGeometry width="50" height="50" relative="1" as="geometry">
            <mxPoint x="990" y="510" as="sourcePoint" />
            <mxPoint x="939" y="570" as="targetPoint" />
            <Array as="points">
              <mxPoint x="1030" y="390" />
            </Array>
          </mxGeometry>
        </mxCell>
        <mxCell id="P_MQMm48tsE6kodi8rJG-3" value="" style="endArrow=none;dashed=1;html=1;dashPattern=1 3;strokeWidth=2;rounded=0;exitX=0.5;exitY=0;exitDx=0;exitDy=0;exitPerimeter=0;entryX=0.75;entryY=1;entryDx=0;entryDy=0;" edge="1" parent="1" source="0mPdFPJ8UgySxpzReuJT-1" target="rJLXyOpNKVKNRPo0n4hy-52">
          <mxGeometry width="50" height="50" relative="1" as="geometry">
            <mxPoint x="1050" y="570" as="sourcePoint" />
            <mxPoint x="1100" y="520" as="targetPoint" />
            <Array as="points">
              <mxPoint x="1080" y="530" />
              <mxPoint x="1080" y="410" />
              <mxPoint x="1170" y="180" />
            </Array>
          </mxGeometry>
        </mxCell>
        <mxCell id="P_MQMm48tsE6kodi8rJG-4" value="" style="endArrow=none;dashed=1;html=1;dashPattern=1 3;strokeWidth=2;rounded=0;exitX=1;exitY=0.5;exitDx=0;exitDy=0;exitPerimeter=0;" edge="1" parent="1" source="iOcRhtn1Pvj0uM8DEcyP-8">
          <mxGeometry width="50" height="50" relative="1" as="geometry">
            <mxPoint x="960" y="520" as="sourcePoint" />
            <mxPoint x="1080" y="490" as="targetPoint" />
          </mxGeometry>
        </mxCell>
        <mxCell id="P_MQMm48tsE6kodi8rJG-5" value="&lt;font color=&quot;#ff0000&quot;&gt;Upload Image Function&lt;/font&gt;" style="outlineConnect=0;dashed=0;verticalLabelPosition=bottom;verticalAlign=top;align=center;html=1;shape=mxgraph.aws3.lambda_function;fillColor=#F58534;gradientColor=none;" vertex="1" parent="1">
          <mxGeometry x="1430" y="650" width="49" height="50" as="geometry" />
        </mxCell>
        <mxCell id="P_MQMm48tsE6kodi8rJG-6" value="&lt;font color=&quot;#ff0000&quot;&gt;Share Image Function&lt;/font&gt;" style="outlineConnect=0;dashed=0;verticalLabelPosition=bottom;verticalAlign=top;align=center;html=1;shape=mxgraph.aws3.lambda_function;fillColor=#F58534;gradientColor=none;" vertex="1" parent="1">
          <mxGeometry x="1375.5" y="400" width="49" height="50" as="geometry" />
        </mxCell>
        <mxCell id="P_MQMm48tsE6kodi8rJG-8" value="&lt;font color=&quot;#ff0000&quot;&gt;Ad creator queue&lt;/font&gt;" style="outlineConnect=0;dashed=0;verticalLabelPosition=bottom;verticalAlign=top;align=center;html=1;shape=mxgraph.aws3.sqs;fillColor=#D9A741;gradientColor=none;" vertex="1" parent="1">
          <mxGeometry x="1380" y="190" width="40" height="50" as="geometry" />
        </mxCell>
        <mxCell id="P_MQMm48tsE6kodi8rJG-9" value="&lt;font color=&quot;#ff0000&quot;&gt;Share Image queue&lt;/font&gt;" style="outlineConnect=0;dashed=0;verticalLabelPosition=bottom;verticalAlign=top;align=center;html=1;shape=mxgraph.aws3.sqs;fillColor=#D9A741;gradientColor=none;" vertex="1" parent="1">
          <mxGeometry x="1230" y="400" width="40" height="50" as="geometry" />
        </mxCell>
        <mxCell id="P_MQMm48tsE6kodi8rJG-10" value="&lt;span style=&quot;font-size: 12px&quot;&gt;&lt;br&gt;&lt;/span&gt;" style="edgeStyle=none;rounded=0;orthogonalLoop=1;jettySize=auto;html=1;fillColor=#e1d5e7;strokeColor=#9673a6;strokeWidth=2;exitX=1;exitY=0.5;exitDx=0;exitDy=0;exitPerimeter=0;" edge="1" parent="1" source="0mPdFPJ8UgySxpzReuJT-7" target="P_MQMm48tsE6kodi8rJG-5">
          <mxGeometry x="-0.0997" y="15" relative="1" as="geometry">
            <mxPoint x="1294.5000000000005" y="674.47" as="sourcePoint" />
            <mxPoint x="1440" y="674.47" as="targetPoint" />
            <mxPoint as="offset" />
          </mxGeometry>
        </mxCell>
        <mxCell id="P_MQMm48tsE6kodi8rJG-11" value="&lt;span style=&quot;font-size: 12px&quot;&gt;&lt;br&gt;&lt;/span&gt;" style="edgeStyle=none;rounded=0;orthogonalLoop=1;jettySize=auto;html=1;fillColor=#e1d5e7;strokeColor=#9673a6;strokeWidth=2;entryX=0;entryY=0.5;entryDx=0;entryDy=0;entryPerimeter=0;exitX=1;exitY=0.5;exitDx=0;exitDy=0;exitPerimeter=0;" edge="1" parent="1" source="P_MQMm48tsE6kodi8rJG-9" target="P_MQMm48tsE6kodi8rJG-6">
          <mxGeometry x="-0.0997" y="15" relative="1" as="geometry">
            <mxPoint x="1230.0000000000005" y="470" as="sourcePoint" />
            <mxPoint x="1375.5" y="470" as="targetPoint" />
            <mxPoint as="offset" />
          </mxGeometry>
        </mxCell>
        <mxCell id="P_MQMm48tsE6kodi8rJG-12" value="&lt;span style=&quot;font-size: 12px&quot;&gt;&lt;br&gt;&lt;/span&gt;" style="edgeStyle=none;rounded=0;orthogonalLoop=1;jettySize=auto;html=1;fillColor=#e1d5e7;strokeColor=#9673a6;strokeWidth=2;entryX=0.5;entryY=1;entryDx=0;entryDy=0;entryPerimeter=0;exitX=0.5;exitY=0;exitDx=0;exitDy=0;exitPerimeter=0;" edge="1" parent="1" source="P_MQMm48tsE6kodi8rJG-5" target="P_MQMm48tsE6kodi8rJG-9">
          <mxGeometry x="-0.0997" y="15" relative="1" as="geometry">
            <mxPoint x="1381.7500000000005" y="550" as="sourcePoint" />
            <mxPoint x="1527.25" y="550" as="targetPoint" />
            <mxPoint as="offset" />
            <Array as="points">
              <mxPoint x="1455" y="540" />
              <mxPoint x="1380" y="540" />
              <mxPoint x="1250" y="540" />
              <mxPoint x="1250" y="520" />
            </Array>
          </mxGeometry>
        </mxCell>
        <mxCell id="P_MQMm48tsE6kodi8rJG-30" value="Enqueue share image request&lt;br&gt;with asset" style="edgeLabel;html=1;align=center;verticalAlign=middle;resizable=0;points=[];" vertex="1" connectable="0" parent="P_MQMm48tsE6kodi8rJG-12">
          <mxGeometry x="-0.1407" relative="1" as="geometry">
            <mxPoint x="-11" y="-20" as="offset" />
          </mxGeometry>
        </mxCell>
        <mxCell id="P_MQMm48tsE6kodi8rJG-13" value="&lt;span style=&quot;font-size: 12px&quot;&gt;&lt;br&gt;&lt;/span&gt;" style="edgeStyle=none;rounded=0;orthogonalLoop=1;jettySize=auto;html=1;fillColor=#e1d5e7;strokeColor=#9673a6;strokeWidth=2;exitX=1;exitY=0.5;exitDx=0;exitDy=0;exitPerimeter=0;" edge="1" parent="1" source="P_MQMm48tsE6kodi8rJG-5" target="rJLXyOpNKVKNRPo0n4hy-29">
          <mxGeometry x="-0.0997" y="15" relative="1" as="geometry">
            <mxPoint x="1520" y="670" as="sourcePoint" />
            <mxPoint x="1625.5" y="674.3800000000001" as="targetPoint" />
            <mxPoint as="offset" />
            <Array as="points">
              <mxPoint x="1870" y="675" />
            </Array>
          </mxGeometry>
        </mxCell>
        <mxCell id="P_MQMm48tsE6kodi8rJG-24" value="LN API to upload image" style="edgeLabel;html=1;align=center;verticalAlign=middle;resizable=0;points=[];" vertex="1" connectable="0" parent="P_MQMm48tsE6kodi8rJG-13">
          <mxGeometry x="-0.8382" y="-2" relative="1" as="geometry">
            <mxPoint x="181" y="-11" as="offset" />
          </mxGeometry>
        </mxCell>
        <mxCell id="P_MQMm48tsE6kodi8rJG-14" value="&lt;span style=&quot;font-size: 12px&quot;&gt;&lt;br&gt;&lt;/span&gt;" style="edgeStyle=none;rounded=0;orthogonalLoop=1;jettySize=auto;html=1;fillColor=#e1d5e7;strokeColor=#9673a6;strokeWidth=2;exitX=1;exitY=0.5;exitDx=0;exitDy=0;exitPerimeter=0;entryX=0.25;entryY=1;entryDx=0;entryDy=0;" edge="1" parent="1" source="P_MQMm48tsE6kodi8rJG-6" target="rJLXyOpNKVKNRPo0n4hy-29">
          <mxGeometry x="-0.0997" y="15" relative="1" as="geometry">
            <mxPoint x="1488.9999999999995" y="685.0000000000005" as="sourcePoint" />
            <mxPoint x="1880" y="135.00000000000045" as="targetPoint" />
            <mxPoint as="offset" />
            <Array as="points">
              <mxPoint x="1840" y="425" />
            </Array>
          </mxGeometry>
        </mxCell>
        <mxCell id="P_MQMm48tsE6kodi8rJG-25" value="LN API to share image" style="edgeLabel;html=1;align=center;verticalAlign=middle;resizable=0;points=[];" vertex="1" connectable="0" parent="P_MQMm48tsE6kodi8rJG-14">
          <mxGeometry x="-0.8325" y="1" relative="1" as="geometry">
            <mxPoint x="22" y="-14" as="offset" />
          </mxGeometry>
        </mxCell>
        <mxCell id="P_MQMm48tsE6kodi8rJG-15" value="&lt;span style=&quot;font-size: 12px&quot;&gt;&lt;br&gt;&lt;/span&gt;" style="edgeStyle=none;rounded=0;orthogonalLoop=1;jettySize=auto;html=1;fillColor=#e1d5e7;strokeColor=#9673a6;strokeWidth=2;entryX=0.5;entryY=1;entryDx=0;entryDy=0;entryPerimeter=0;" edge="1" parent="1" source="P_MQMm48tsE6kodi8rJG-6" target="P_MQMm48tsE6kodi8rJG-8">
          <mxGeometry x="-0.0997" y="15" relative="1" as="geometry">
            <mxPoint x="1200" y="435.00000000000045" as="sourcePoint" />
            <mxPoint x="1390" y="435.00000000000045" as="targetPoint" />
            <mxPoint as="offset" />
          </mxGeometry>
        </mxCell>
        <mxCell id="P_MQMm48tsE6kodi8rJG-31" value="Enqueue ad creation request&lt;br&gt;with share ID and campaign ID" style="edgeLabel;html=1;align=center;verticalAlign=middle;resizable=0;points=[];" vertex="1" connectable="0" parent="P_MQMm48tsE6kodi8rJG-15">
          <mxGeometry x="0.1375" y="-1" relative="1" as="geometry">
            <mxPoint as="offset" />
          </mxGeometry>
        </mxCell>
        <mxCell id="P_MQMm48tsE6kodi8rJG-16" value="&lt;span style=&quot;font-size: 12px&quot;&gt;&lt;br&gt;&lt;/span&gt;" style="edgeStyle=none;rounded=0;orthogonalLoop=1;jettySize=auto;html=1;fillColor=#e1d5e7;strokeColor=#9673a6;strokeWidth=2;entryX=0.5;entryY=1;entryDx=0;entryDy=0;entryPerimeter=0;exitX=0.5;exitY=0;exitDx=0;exitDy=0;exitPerimeter=0;" edge="1" parent="1" source="P_MQMm48tsE6kodi8rJG-8" target="rJLXyOpNKVKNRPo0n4hy-28">
          <mxGeometry x="-0.0997" y="15" relative="1" as="geometry">
            <mxPoint x="1490" y="130.00000000000045" as="sourcePoint" />
            <mxPoint x="1490" y="-49.999999999999545" as="targetPoint" />
            <mxPoint as="offset" />
          </mxGeometry>
        </mxCell>
        <mxCell id="P_MQMm48tsE6kodi8rJG-17" value="&lt;span style=&quot;font-size: 12px&quot;&gt;&lt;br&gt;&lt;/span&gt;" style="edgeStyle=none;rounded=0;orthogonalLoop=1;jettySize=auto;html=1;fillColor=#e1d5e7;strokeColor=#9673a6;strokeWidth=2;entryX=0;entryY=0.5;entryDx=0;entryDy=0;exitX=1;exitY=0.5;exitDx=0;exitDy=0;exitPerimeter=0;" edge="1" parent="1" source="rJLXyOpNKVKNRPo0n4hy-28" target="rJLXyOpNKVKNRPo0n4hy-29">
          <mxGeometry x="-0.0997" y="15" relative="1" as="geometry">
            <mxPoint x="1200" y="435.00000000000045" as="sourcePoint" />
            <mxPoint x="1385.4999999999995" y="435.00000000000045" as="targetPoint" />
            <mxPoint as="offset" />
          </mxGeometry>
        </mxCell>
        <mxCell id="P_MQMm48tsE6kodi8rJG-26" value="LN API to create ad" style="edgeLabel;html=1;align=center;verticalAlign=middle;resizable=0;points=[];" vertex="1" connectable="0" parent="P_MQMm48tsE6kodi8rJG-17">
          <mxGeometry x="-0.6818" relative="1" as="geometry">
            <mxPoint x="14" y="-10" as="offset" />
          </mxGeometry>
        </mxCell>
        <mxCell id="P_MQMm48tsE6kodi8rJG-18" value="" style="endArrow=none;dashed=1;html=1;dashPattern=1 3;strokeWidth=2;rounded=0;entryX=0.145;entryY=0.855;entryDx=0;entryDy=0;entryPerimeter=0;" edge="1" parent="1" target="rJLXyOpNKVKNRPo0n4hy-28">
          <mxGeometry width="50" height="50" relative="1" as="geometry">
            <mxPoint x="1170" y="150" as="sourcePoint" />
            <mxPoint x="1381" y="345" as="targetPoint" />
          </mxGeometry>
        </mxCell>
        <mxCell id="P_MQMm48tsE6kodi8rJG-20" value="" style="endArrow=none;dashed=1;html=1;dashPattern=1 3;strokeWidth=2;rounded=0;entryX=0.145;entryY=0.145;entryDx=0;entryDy=0;entryPerimeter=0;" edge="1" parent="1" target="P_MQMm48tsE6kodi8rJG-6">
          <mxGeometry width="50" height="50" relative="1" as="geometry">
            <mxPoint x="1120" y="320" as="sourcePoint" />
            <mxPoint x="1400.9999999999995" y="365" as="targetPoint" />
          </mxGeometry>
        </mxCell>
        <mxCell id="P_MQMm48tsE6kodi8rJG-21" value="" style="endArrow=none;dashed=1;html=1;dashPattern=1 3;strokeWidth=2;rounded=0;" edge="1" parent="1" target="P_MQMm48tsE6kodi8rJG-5">
          <mxGeometry width="50" height="50" relative="1" as="geometry">
            <mxPoint x="1070" y="570" as="sourcePoint" />
            <mxPoint x="1410.9999999999995" y="375" as="targetPoint" />
          </mxGeometry>
        </mxCell>
        <mxCell id="P_MQMm48tsE6kodi8rJG-28" value="" style="endArrow=none;dashed=1;html=1;strokeWidth=2;rounded=1;entryX=0.5;entryY=1;entryDx=0;entryDy=0;startArrow=classicThin;startFill=0;strokeColor=#1A1A1A;exitX=0.145;exitY=0.145;exitDx=0;exitDy=0;exitPerimeter=0;" edge="1" parent="1" source="P_MQMm48tsE6kodi8rJG-5" target="rJLXyOpNKVKNRPo0n4hy-53">
          <mxGeometry width="50" height="50" relative="1" as="geometry">
            <mxPoint x="891.895" y="487.25" as="sourcePoint" />
            <mxPoint x="1077.5" y="105" as="targetPoint" />
            <Array as="points">
              <mxPoint x="1210" y="560" />
              <mxPoint x="1040" y="430" />
            </Array>
          </mxGeometry>
        </mxCell>
        <mxCell id="P_MQMm48tsE6kodi8rJG-29" value="Get asset image to upload&lt;br&gt;and customization json data" style="edgeLabel;html=1;align=center;verticalAlign=middle;resizable=0;points=[];rotation=35;" vertex="1" connectable="0" parent="P_MQMm48tsE6kodi8rJG-28">
          <mxGeometry x="0.6725" relative="1" as="geometry">
            <mxPoint x="100" y="274" as="offset" />
          </mxGeometry>
        </mxCell>
        <mxCell id="P_MQMm48tsE6kodi8rJG-33" value="" style="endArrow=none;html=1;rounded=0;strokeColor=#FF0000;strokeWidth=2;" edge="1" parent="1">
          <mxGeometry width="50" height="50" relative="1" as="geometry">
            <mxPoint x="130" y="1040" as="sourcePoint" />
            <mxPoint x="130" y="-1110" as="targetPoint" />
          </mxGeometry>
        </mxCell>
        <mxCell id="P_MQMm48tsE6kodi8rJG-34" value="" style="endArrow=none;html=1;rounded=0;strokeColor=#FF0000;strokeWidth=2;" edge="1" parent="1">
          <mxGeometry width="50" height="50" relative="1" as="geometry">
            <mxPoint x="2250" y="1030" as="sourcePoint" />
            <mxPoint x="2250" y="-1110" as="targetPoint" />
          </mxGeometry>
        </mxCell>
        <mxCell id="P_MQMm48tsE6kodi8rJG-35" value="" style="endArrow=none;html=1;rounded=0;strokeColor=#FF0000;strokeWidth=2;" edge="1" parent="1">
          <mxGeometry width="50" height="50" relative="1" as="geometry">
            <mxPoint x="2250" y="1030" as="sourcePoint" />
            <mxPoint x="130" y="1040" as="targetPoint" />
          </mxGeometry>
        </mxCell>
        <mxCell id="P_MQMm48tsE6kodi8rJG-36" value="" style="endArrow=none;html=1;rounded=0;strokeColor=#FF0000;strokeWidth=2;" edge="1" parent="1">
          <mxGeometry width="50" height="50" relative="1" as="geometry">
            <mxPoint x="2250" y="-1110" as="sourcePoint" />
            <mxPoint x="130" y="-1110" as="targetPoint" />
          </mxGeometry>
        </mxCell>
      </root>
    </mxGraphModel>
  </diagram>
</mxfile>
